<?xml version="1.0" standalone="no"?>
<!DOCTYPE svg PUBLIC "-//W3C//DTD SVG 20010904//EN"
 "http://www.w3.org/TR/2001/REC-SVG-20010904/DTD/svg10.dtd">
<svg version="1.0" xmlns="http://www.w3.org/2000/svg"
 width="480.000000pt" height="480.000000pt" viewBox="0 0 480.000000 480.000000"
 preserveAspectRatio="xMidYMid meet">
<metadata>
Created by potrace 1.11, written by Peter Selinger 2001-2013
</metadata>
<g transform="translate(0.000000,480.000000) scale(0.100000,-0.100000)"
fill="#000000" stroke="none">
<path d="M0 2400 l0 -2400 2400 0 2400 0 0 2400 0 2400 -2400 0 -2400 0 0
-2400z m1873 1660 c59 -46 58 -42 55 -773 -2 -367 -1 -667 2 -667 3 0 17 19
32 43 33 52 128 149 183 187 59 40 149 85 225 110 94 31 307 31 435 0 112 -28
156 -47 244 -105 147 -97 250 -260 300 -477 95 -402 19 -807 -202 -1091 -137
-176 -349 -312 -562 -362 -260 -61 -588 -39 -814 55 -123 50 -314 171 -328
206 -2 7 4 29 15 51 67 131 72 217 72 1308 0 1121 1 1112 -89 1173 -37 26 -64
34 -131 43 -120 16 -114 12 -107 64 4 25 13 60 21 78 13 33 15 34 90 41 122
11 296 52 402 95 116 46 123 47 157 21z"/>
<path d="M2400 2699 c-193 -28 -332 -163 -412 -399 -49 -145 -59 -268 -56
-689 l3 -375 64 -43 c126 -84 256 -113 403 -89 159 26 269 87 361 201 56 69
119 194 142 280 43 161 57 395 34 547 -57 370 -281 606 -539 567z"/>
</g>
</svg>
